<svg width="15" height="15" viewBox="0 0 15 15" fill="none" xmlns="http://www.w3.org/2000/svg">
<path d="M13.675 3.6C13.7177 3.60003 13.76 3.59164 13.7994 3.57531C13.8388 3.55899 13.8747 3.53505 13.9049 3.50487C13.9351 3.47468 13.959 3.43884 13.9753 3.3994C13.9916 3.35996 14 3.31769 14 3.275V1.325C14 1.28231 13.9916 1.24004 13.9753 1.2006C13.959 1.16116 13.9351 1.12532 13.9049 1.09513C13.8747 1.06495 13.8388 1.04101 13.7994 1.02469C13.76 1.00836 13.7177 0.999974 13.675 1H11.725C11.6823 0.999974 11.64 1.00836 11.6006 1.02469C11.5612 1.04101 11.5253 1.06495 11.4951 1.09513C11.4649 1.12532 11.441 1.16116 11.4247 1.2006C11.4084 1.24004 11.4 1.28231 11.4 1.325V1.975H3.6V1.325C3.60003 1.28231 3.59164 1.24004 3.57531 1.2006C3.55899 1.16116 3.53505 1.12532 3.50487 1.09513C3.47468 1.06495 3.43884 1.04101 3.3994 1.02469C3.35996 1.00836 3.31769 0.999974 3.275 1H1.325C1.28231 0.999974 1.24004 1.00836 1.2006 1.02469C1.16116 1.04101 1.12532 1.06495 1.09513 1.09513C1.06495 1.12532 1.04101 1.16116 1.02469 1.2006C1.00836 1.24004 0.999974 1.28231 1 1.325V3.275C0.999974 3.31769 1.00836 3.35996 1.02469 3.3994C1.04101 3.43884 1.06495 3.47468 1.09513 3.50487C1.12532 3.53505 1.16116 3.55899 1.2006 3.57531C1.24004 3.59164 1.28231 3.60003 1.325 3.6H1.975V11.4H1.325C1.28231 11.4 1.24004 11.4084 1.2006 11.4247C1.16116 11.441 1.12532 11.4649 1.09513 11.4951C1.06495 11.5253 1.04101 11.5612 1.02469 11.6006C1.00836 11.64 0.999974 11.6823 1 11.725V13.675C0.999974 13.7177 1.00836 13.76 1.02469 13.7994C1.04101 13.8388 1.06495 13.8747 1.09513 13.9049C1.12532 13.9351 1.16116 13.959 1.2006 13.9753C1.24004 13.9916 1.28231 14 1.325 14H3.275C3.31769 14 3.35996 13.9916 3.3994 13.9753C3.43884 13.959 3.47468 13.9351 3.50487 13.9049C3.53505 13.8747 3.55899 13.8388 3.57531 13.7994C3.59164 13.76 3.60003 13.7177 3.6 13.675V13.025H11.4V13.675C11.4 13.7177 11.4084 13.76 11.4247 13.7994C11.441 13.8388 11.4649 13.8747 11.4951 13.9049C11.5253 13.9351 11.5612 13.959 11.6006 13.9753C11.64 13.9916 11.6823 14 11.725 14H13.675C13.7177 14 13.76 13.9916 13.7994 13.9753C13.8388 13.959 13.8747 13.9351 13.9049 13.9049C13.9351 13.8747 13.959 13.8388 13.9753 13.7994C13.9916 13.76 14 13.7177 14 13.675V11.725C14 11.6823 13.9916 11.64 13.9753 11.6006C13.959 11.5612 13.9351 11.5253 13.9049 11.4951C13.8747 11.4649 13.8388 11.441 13.7994 11.4247C13.76 11.4084 13.7177 11.4 13.675 11.4H13.025V3.6H13.675ZM12.375 11.4H11.725C11.6823 11.4 11.64 11.4084 11.6006 11.4247C11.5612 11.441 11.5253 11.4649 11.4951 11.4951C11.4649 11.5253 11.441 11.5612 11.4247 11.6006C11.4084 11.64 11.4 11.6823 11.4 11.725V12.375H3.6V11.725C3.60003 11.6823 3.59164 11.64 3.57531 11.6006C3.55899 11.5612 3.53505 11.5253 3.50487 11.4951C3.47468 11.4649 3.43884 11.441 3.3994 11.4247C3.35996 11.4084 3.31769 11.4 3.275 11.4H2.625V3.6H3.275C3.31769 3.60003 3.35996 3.59164 3.3994 3.57531C3.43884 3.55899 3.47468 3.53505 3.50487 3.50487C3.53505 3.47468 3.55899 3.43884 3.57531 3.3994C3.59164 3.35996 3.60003 3.31769 3.6 3.275V2.625H11.4V3.275C11.4 3.31769 11.4084 3.35996 11.4247 3.3994C11.441 3.43884 11.4649 3.47468 11.4951 3.50487C11.5253 3.53505 11.5612 3.55899 11.6006 3.57531C11.64 3.59164 11.6823 3.60003 11.725 3.6H12.375V11.4Z" fill="white" stroke="white" stroke-width="0.2"/>
</svg>
